# Blender v2.83.20 OBJ File: 'untitled (2).blend'
# www.blender.org
o 0______002_Mesh.018
v 6.722088 2.647851 7.464260
v 1.744364 2.734737 2.488496
v 1.744364 2.734737 0.986498
v 6.722088 2.647850 -5.741222
v 0.869366 2.750010 0.111500
v -3.233360 2.647851 5.964222
v 1.744364 2.734737 0.986498
v 1.744364 2.734737 2.488496
v -3.233360 2.647851 7.468179
v -3.233360 2.647851 7.468179
v 1.744364 2.734737 2.488496
v 6.722088 2.647851 7.464260
v -6.483419 2.647851 5.964222
v -0.634145 2.750010 0.111500
v 0.869366 2.750010 0.111500
v 1.744364 2.734737 0.986498
v -3.233360 2.647851 5.964222
v 6.722088 2.647850 -5.741222
v 0.869366 2.750010 0.111500
v -0.634145 2.750010 0.111500
v -6.490314 2.647850 -5.741222
v -6.490314 2.647850 -5.741222
v -0.634145 2.750010 0.111500
v -6.483419 2.647851 5.964222
vt 11.455222 11.457993
vt 16.430983 16.436472
vt 17.932981 16.436472
vt 24.660704 11.457993
vt 18.807981 17.311605
vt -11.459738 11.457993
vt -16.437458 16.436472
vt -14.935459 16.436472
vt -9.955776 11.457993
vt 11.464254 11.457993
vt 16.443937 16.436472
vt 21.419697 11.457993
vt 11.452987 11.457993
vt 17.302261 17.311605
vt 18.805765 17.311605
vt 19.680765 16.436472
vt 14.703045 11.457993
vt 11.459738 11.457993
vt 17.312458 17.311605
vt 18.815964 17.311605
vt 24.672134 11.457993
vt 11.466492 11.457993
vt 17.322662 17.311605
vt 23.171936 11.457993
vn -0.0175 -0.9998 0.0000
vn 0.0175 -0.9998 0.0000
vn -0.0000 -0.9998 -0.0175
vn 0.0000 -0.9998 0.0175
s 1
f 1/1/1 2/2/1 3/3/1
f 1/1/1 3/3/1 4/4/1
f 4/4/1 3/3/1 5/5/1
f 6/6/2 7/7/2 8/8/2
f 6/6/2 8/8/2 9/9/2
f 10/10/3 11/11/3 12/12/3
f 13/13/3 14/14/3 15/15/3
f 13/13/3 15/15/3 16/16/3
f 13/13/3 16/16/3 17/17/3
f 18/18/4 19/19/4 20/20/4
f 18/18/4 20/20/4 21/21/4
f 22/22/2 23/23/2 24/24/2
