# Blender v2.83.20 OBJ File: 'untitled (3).blend'
# www.blender.org
o Plane.001_Plane.003
v 5.104535 0.205446 5.996477
v -6.415159 0.205446 -5.706522
v 0.048192 0.205446 5.996477
v 0.048192 0.205446 -5.706522
v -4.067449 0.205446 -5.706522
v -6.415159 0.205446 -3.822171
v -6.415159 0.205446 4.334984
v 5.104535 0.205446 4.334984
v 5.104535 0.205446 -3.822171
v -4.067449 0.205446 4.334984
v -4.067449 0.205446 -3.822171
v 0.048192 0.205446 4.334984
v 0.048192 0.205446 -3.822171
vt -2.202260 3.889856
vt -4.025248 5.500000
vt -4.025249 3.889857
vt 0.993519 3.889855
vt -2.202260 5.500000
vt 0.993517 -3.080284
vt -2.202262 -3.080283
vt -4.025249 -3.080282
vt 4.919747 -4.500000
vt 0.993517 -4.499999
vt 4.919748 -3.080285
vt 0.993519 5.499998
vt 4.919750 3.889854
vn 0.0000 1.0000 0.0000
s off
f 11/1/1 2/2/1 6/3/1
f 13/4/1 5/5/1 11/1/1
f 12/6/1 11/1/1 10/7/1
f 10/7/1 6/3/1 7/8/1
f 1/9/1 12/6/1 3/10/1
f 8/11/1 13/4/1 12/6/1
f 11/1/1 5/5/1 2/2/1
f 13/4/1 4/12/1 5/5/1
f 12/6/1 13/4/1 11/1/1
f 10/7/1 11/1/1 6/3/1
f 1/9/1 8/11/1 12/6/1
f 8/11/1 9/13/1 13/4/1
